/* XPM */
static char *Free_Converter_com_mur_55543740[] = {
/* columns rows colors chars-per-pixel */
"64 64 170 2 ",
"   c #4C312A",
".  c #4F3E36",
"X  c #573B30",
"o  c #5B3F34",
"O  c #573F3B",
"+  c #583F3A",
"@  c #5F4337",
"#  c #55423B",
"$  c #5C433B",
"%  c #5A483E",
"&  c #624439",
"*  c #654A3D",
"=  c #6B4A3D",
"-  c #724C3F",
";  c #544645",
":  c #5D4640",
">  c #504846",
",  c #5D4943",
"<  c #564A49",
"1  c #5C4A48",
"2  c #5B514D",
"3  c #5F5452",
"4  c #5E5956",
"5  c #634C43",
"6  c #6A4D45",
"7  c #654D4A",
"8  c #6B4E4B",
"9  c #734C41",
"0  c #784E42",
"q  c #704E4C",
"w  c #635147",
"e  c #6B5146",
"r  c #64524C",
"t  c #6C534C",
"y  c #66584F",
"u  c #6C594F",
"i  c #705146",
"p  c #73534C",
"a  c #7A564C",
"s  c #75594D",
"d  c #7A5A4D",
"f  c #655552",
"g  c #6B5652",
"h  c #655855",
"j  c #6C5A54",
"k  c #665B5A",
"l  c #6C5C5A",
"z  c #725551",
"x  c #795550",
"c  c #735B54",
"v  c #7B5C55",
"b  c #735E5A",
"n  c #7B5E59",
"m  c #6E6257",
"M  c #6D615D",
"N  c #746255",
"B  c #7B6256",
"V  c #74625C",
"C  c #7C635C",
"Z  c #76685F",
"A  c #7A695D",
"S  c #6D6361",
"D  c #6F6B6A",
"F  c #746662",
"G  c #7B6661",
"H  c #766965",
"J  c #7C6A64",
"K  c #766C69",
"L  c #7D6E6A",
"P  c #7C7067",
"I  c #7D716C",
"U  c #7E7471",
"Y  c #7D7874",
"T  c #825A4D",
"R  c #835D53",
"E  c #895E54",
"W  c #825E59",
"Q  c #846154",
"!  c #8A6355",
"~  c #83635C",
"^  c #8A655C",
"/  c #83695F",
"(  c #8C695D",
")  c #906656",
"_  c #92665B",
"`  c #91695D",
"'  c #836661",
"]  c #8A6660",
"[  c #836B63",
"{  c #8B6C64",
"}  c #836E6A",
"|  c #8B6D69",
" . c #926C63",
".. c #996C63",
"X. c #906F68",
"o. c #857165",
"O. c #8C7166",
"+. c #85736C",
"@. c #8B736C",
"#. c #877A6F",
"$. c #8D796E",
"%. c #937164",
"&. c #93746B",
"*. c #9A736C",
"=. c #95796E",
"-. c #9B796D",
";. c #847572",
":. c #8B7671",
">. c #867975",
",. c #8C7A73",
"<. c #877C7A",
"1. c #8D7D7A",
"2. c #937772",
"3. c #9B7771",
"4. c #937B74",
"5. c #9B7B74",
"6. c #937E79",
"7. c #9C7D7A",
"8. c #A17C75",
"9. c #A27E79",
"0. c #8D817C",
"q. c #948176",
"w. c #9D8176",
"e. c #94827C",
"r. c #9B837D",
"t. c #9F897E",
"y. c #A28276",
"u. c #A3847C",
"i. c #AA867C",
"p. c #A3887F",
"a. c #AA887E",
"s. c #8D8481",
"d. c #948582",
"f. c #9B8682",
"g. c #958985",
"h. c #9C8A84",
"j. c #968C8A",
"k. c #9C8D8A",
"l. c #9D918D",
"z. c #9E9491",
"x. c #A38682",
"c. c #A98780",
"v. c #A38B85",
"b. c #AA8B84",
"n. c #A48E89",
"m. c #A98E89",
"M. c #B08E85",
"N. c #B18F89",
"B. c #A39086",
"V. c #A99186",
"C. c #A4928C",
"Z. c #AB938D",
"A. c #B1948D",
"S. c #A39592",
"D. c #AA9691",
"F. c #A59994",
"G. c #AC9A95",
"H. c #A69C99",
"J. c #AB9D9A",
"K. c #B19690",
"L. c #B29A94",
"P. c #B29D9A",
"I. c #ADA09C",
"U. c #B3A19C",
"Y. c #B9A29C",
"T. c #AEA4A2",
"R. c #B4A5A1",
"E. c #B3A8A4",
"W. c #BAA9A5",
"Q. c #FFFFFE",
/* pixels */
"Q.Q.Q.Q.Q.Q.Q.Q.Q.Q.Q.Q.Q.Q.Q.Q.Q.Q.Q.Q.Q.Q.Q.Q.Q.Q.Q.Q.Q.Q.Q.Q.Q.Q.Q.Q.Q.Q.Q.Q.Q.Q.Q.Q.Q.Q.Q.Q.Q.Q.Q.Q.Q.Q.Q.Q.Q.Q.Q.Q.Q.Q.Q.Q.",
"Q.Q.Q.Q.Q.Q.Q.Q.Q.Q.Q.Q.Q.Q.Q.Q.Q.Q.Q.Q.Q.Q.Q.Q.Q.Q.Q.Q.Q.Q.Q.Q.Q.Q.Q.Q.Q.Q.Q.Q.Q.Q.Q.Q.Q.Q.Q.Q.Q.Q.Q.Q.Q.Q.Q.Q.Q.Q.Q.Q.Q.Q.Q.Q.",
"Q.Q.Q.Q.Q.Q.Q.Q.Q.Q.Q.Q.Q.Q.Q.Q.Q.Q.Q.Q.Q.Q.Q.Q.Q.Q.Q.Q.Q.Q.Q.Q.Q.Q.Q.Q.Q.Q.Q.Q.Q.Q.Q.Q.Q.Q.Q.Q.Q.Q.Q.Q.Q.Q.Q.Q.Q.Q.Q.Q.Q.Q.Q.Q.",
"Q.Q.Q.Q.Q.Q.Q.Q.Q.Q.Q.Q.Q.Q.Q.Q.Q.Q.Q.Q.Q.Q.Q.Q.Q.Q.Q.Q.Q.Q.Q.Q.Q.Q.Q.Q.Q.Q.Q.Q.Q.Q.Q.Q.Q.Q.Q.Q.Q.Q.Q.Q.Q.Q.Q.Q.Q.Q.Q.Q.Q.Q.Q.Q.",
"Q.Q.Q.Q.Q.Q.Q.Q.Q.Q.Q.Q.Q.Q.Q.Q.Q.Q.Q.Q.Q.Q.Q.Q.Q.Q.Q.Q.Q.Q.Q.Q.Q.Q.Q.Q.Q.Q.Q.Q.Q.Q.Q.Q.Q.Q.Q.Q.Q.Q.Q.Q.Q.Q.Q.Q.Q.Q.Q.Q.Q.Q.Q.Q.",
"Q.Q.Q.Q.Q.Q.Q.Q.Q.Q.Q.Q.Q.Q.Q.Q.Q.Q.Q.Q.Q.Q.Q.Q.Q.Q.Q.Q.Q.Q.Q.Q.Q.Q.Q.Q.Q.Q.Q.Q.Q.Q.Q.Q.Q.Q.Q.Q.Q.Q.Q.Q.Q.Q.Q.Q.Q.Q.Q.Q.Q.Q.Q.Q.",
"Q.Q.Q.Q.Q.Q.Q.Q.Q.Q.Q.Q.Q.Q.Q.Q.Q.Q.Q.Q.Q.Q.Q.Q.Q.Q.Q.Q.Q.Q.Q.Q.Q.Q.Q.Q.Q.Q.Q.Q.Q.Q.Q.Q.Q.Q.Q.Q.Q.Q.Q.Q.Q.Q.Q.Q.Q.Q.Q.Q.Q.Q.Q.Q.",
"Q.Q.Q.Q.Q.Q.Q.Q.Q.Q.Q.Q.Q.Q.Q.Q.Q.Q.Q.Q.Q.Q.Q.Q.Q.Q.Q.Q.Q.Q.Q.Q.Q.Q.Q.Q.Q.Q.Q.Q.Q.Q.Q.Q.Q.Q.Q.Q.Q.Q.Q.Q.Q.Q.Q.Q.Q.Q.Q.Q.Q.Q.Q.Q.",
"D k ; < 2 s.M j u y l V l F 0.l b y 0.<.M C G C / [ G 1.;.k l b 6.g g z z z z u j g.3 < > S j.l l g j l l k k d.j h r S s.4 f f ",
"<.<.:.:.1.S.g.:.5.&.2.7.6.e.B.w.7.=.B.C.h.f.u.a.i.u.r.x.n.x.x.x.Z.4.4.3.5.8.8.3.f.D.f.h.f.k.G.k.x.x.f.x.h.d.f.D.r.x.r.w.k.1.d.>.",
"V F [ } @.+.#.r.^ ` ` =.4.J [ [ | | | [ h.h.~ X.O.v.X.^ ] X.| | } | D.4.] ] | u.[ ' ' ] ] ' ] ' D.1.@.@.6.v.]  . ._ ^ ^ ^ v :.f ",
"j b b G } [ [ t.( Q ~ -.4.b G G G +.| [ h.t.~ ~ G v.' W W W W n C F l.:.~ B C r.G n n v W v x ' k.4.} } 4.h.] .. . .` ` ^ ~ 6.b ",
"1.:.:.:.0.k.t.B.v.u.b.V.D.S.F.C.S.D.P.J.G.P.L.L.D.D.h.e.k.f.f.S.F.D.J.S.V.A.K.C.F.D.v.b.v.b.D.n.C.n.D.n.D.D.x.D.b.m.c.x.m.f.0.6.",
"U F j l H 0.V J J A J +.} ;.d.K } H 0.K h b b F G J G ,.U F K ;.j.>.,.#.q.t.q.#.U S.J G G ,.S.l b c c z b b h d.| n n b ,.3 f 1 ",
"Y I b F Y g.+.+.@.+.:.:.>.<.z.Y } >.S.<.L J J } } J b 0.0.} } <.H.g.t.q.q.t.w.:.d.I.:.4.:.h.J.U L } | | +.L L S.f.6.1.6.l.K F M ",
"s.d.6.6.t.C.S.G.r.r.f.n.I.l.l.n.h.v.B.n.G.P.n.x.7.C.x.h.D.k.k.n.F.S.I.G.b.V.V.G.G.n.n.D.n.m.C.B.J.F.f.f.n.J.S.f.n.n.x.h.d.0.g.d.",
"b 7 u v B C G h.C v c @.h.c x z x a a q v x.v p 8 2.r.~ [ G [ } | [ 6.f.^ ] | m.=.[ ' | &. .X.[ f.<.q q q f.b z ' ' W W z 7 ;.H ",
"' G [ %.-.5.w.L.i.5.3.m.L.:.2.&...*.*.&.7.L.8.3.X.u.M.7.w.6.6.7.f.6.n.x.3.5.7.L.x.w.y.u.y.i.9.7.P.L.3.3.2.m.x.x.7.9.9.7.| ' f.7.",
"S.B.w.p.p.L.w.i.y.8.u.v.v.x.Y.n.7.7.m.P.n.b.N.M.i.i.c.x.J.d.1.:.h.G.n.x.v.x.7.x.u.x.Z.u.a.u.N.v.7.7.3.7.7.x.7.N.N.m.c.x.K.7.2.2.",
"Y >.J O.#.B.C ~ n B B ~ ' F F.H 8 z F k.b n n W ^ ] ] } l.M j g U :.j G n z z n z n 4.b ~ z 1.G 7 q q q q b g 1.1.n ' W d.S g q ",
"j.z.j.t.k.I.C.B.f.h.t.f.1.s.E.z.k.h.j.T.g.g.v.n.n.n.d.f.E.j.1.d.F.J.0.1.f.d.6.+.1.l.J.d.e.e.S.k.1.d.g.d.d.d.1.H.H.f.j.d.H.j.1.<.",
"z.j.t.t.l.C.F.I.n.h.C.B.T.z.z.l.k.k.k.j.l.J.k.r.7.S.P.j.j.d.d.d.d.d.S.J.0.6.1.n.J.h.g.k.h.h.d.d.F.H.k.k.S.T.z.z.S.S.j.f.j.1.z.z.",
"P A B o.q.q.q.t.$.A ~ +.H.K b G b b C V j :.c z z | k.g z z z z z z H k.7 z 8 :.4.c v v v v z f U d.g n b f.L z b b b b z 7 L U ",
"q.t.t.w.t.t.t.G.A.p.i.b.U.k.h.f.x.v.v.f.f.G.b.x.7.m.P.f.7.7.7.7.x.7.m.P.x.x.7.N.K.u.u.i.c.i.r.6.F.J.6.x.x.P.n.7.x.x.7.7.d.:.f.z.",
"H.z.e.t.j.U.D.m.m.b.b.N.m.Z.R.G.x.v.n.W.D.n.m.m.Z.m.n.k.P.1.7.7.D.P.x.c.c.c.9.x.r.b.P.r.7.5.n.S.f.7.7.j.x.x.x.P.D.7.7.1.S.z.7.7.",
"0.P y m M z.} c G v z c n b g.>.g c M g.j b b j g l b S g.l b q :.f.n ' ' ' W W B [ n.f c q } } k k q q q l q j.1.1 q 7 1.;.z z ",
"j.g.>.>.<.H.l.1.d.f.f.r.1.<.l.l.e.f.g.F.0.0.d.0.d.d.d.d.J.s.0.1.z.n.1.7.f.6.7.6.q.e.J.d.6.6.B.C.7.k.x.x.x.d.j.T.J.1.2.2.H.z.<.<.",
"s.s.0.0.g.l.l.J.C.f.h.n.J.j.0.d.f.f.f.d.g.J.G.g.f.H.Z.d.d.d.n.h.f.d.k.H.e.f.d.S.h.0.t.r.e.r.e.e.k.k.| 7.7.H.j.s.<.2.2.| 2.| 1.j.",
"P J G H L +.F e.2.v ~ ~ k.U G ' G ' ' C b f.W n z 2.9.c G n v n ^ C 1.l.V L G 0.d.G ' ' ' ' ' W 1.d.n ' W x.' q W x q q q 1 ' U ",
"f.f.b.v.v.n.n.G.N.u.i.c.P.G.C.D.Z.N.b.x.x.A.c.M.9.N.L.c.v.v.i.c.b.x.C.U.v.x.v.P.P.Z.n.v.m.m.x.x.N.N.9.c.x.P.m.x.x.c.9.9.x.7.k.x.",
"F.e.&.&.:.G.7.7.5.7.8.7.7.2.G.x.&.&.:.Z.2.*.3.8.3.3.8.3.Y.7.2.2.6.D.} | &.&.2.X.| 5.P.' ] W x.x.] ..] ] | | | n.N.W | ] x.7.| | ",
"1.J q z c n.G n C C n n n c f.:.8 z j h.~ x W ^ ^ W E W n.V q z } d.j c n n v v z | n.g q q ;.7.q x x x q q q 7.x.q x q 1.<.l z ",
"F.k.f.f.k.J.S.j.g.l.k.l.l.l.J.D.t.h.h.J.D.S.S.x.n.m.m.n.R.n.n.n.H.J.z.F.S.D.D.Z.B.F.I.l.B.h.F.U.S.D.n.V.n.n.k.H.P.C.C.h.F.H.F.l.",
"+.} } ;.:.>.s.H.z.0.0.j.I.0.0.e.r.h.j.h.k.J.;.;.} 1.H.;.<.1.1.1.4.<.s.J.6.6.,.h.l.0.0.e.e.e.e.<.g.S.:.:.} n.s.K ;.4.,.;.+.J >.s.",
"q 7 6 6 8 j t d.0.I I +.z.Y P [ [ @.:.1.1.S.G G n L F.;.:.#.} } } } Y S.[ [ C :.f.K | +.+.} [ [ <.d.v n z e.<.l G C V b F h K s.",
"5.9.9.9.x.x.n.G.D.C.B.B.J.D.G.D.V.V.b.P.H.D.n.m.x.v.L.C.P.G.m.v.C.L.J.W.L.K.K.D.Y.D.D.Z.K.V.m.C.D.L.i.a.x.A.G.n.C.B.B.r.f.g.n.l.",
"1.2.x ^ v V.5.@.&.%.&.=.&.} F.S.B B b e.:.x W W W W W W n.:.] ~ } f.J :.| | | O.:.} n.} ~ n :.f.X.*...X.*.X.| f.h.C ' n f.:.' ' ",
"+.6.W W v m.=.[ { {  .{ | [ S.S.J ' V m.7.v W W ] W W n n.6.{ | @.n.} ' [ C / [ G | D.G z z :.h.W ^ ] ] ] ' G x.f.u c q 6.| v x ",
"f.n.Z.n.C.G.C.D.K.v.m.V.P.S.J.T.D.G.G.P.P.P.P.K.K.K.G.S.J.P.m.n.n.G.G.J.V.L.L.L.J.S.F.k.v.v.n.n.k.C.m.b.n.C.B.D.D.v.n.v.Z.n.f.k.",
"l j g j c l S F.J c j } T.H H G V J J J M F.1.} +.1.S.;.U } L J ' J U S.G [ J e.s.h l G b c b l <.d.l V j k.d.J $.+.} } G n <.;.",
"c u j c c V J H.$.P A $.I.P J G ' } } [ K J.q.#.$.q.H.>.>.,.:.$.:.#.s.T.:.+.} j.g.H I +.+.| #.J d.j.b V l g.g.+.} } +.o.[ J q.>.",
"2.5...-.8.u.h.f.p.p.v.V.Z.k.B.V.x.x.p.D.L.I.G.D.Z.D.I.H.W.F.v.n.k.R.J.G.K.A.D.D.L.I.E.H.D.D.H.P.H.C.f.v.n.D.C.Z.G.D.K.K.P.G.G.C.",
"c O.- 0 0 { { d T Q Q Q Q B $.q.E ! ~ u.B B B B C B v b J.o.B W [ W.| W E R ! Q Q B L.G 6 q n f.b n v v v n v ~ p./ O.O.C.h.B E ",
"B &.a T R %.%.! ) ) ) ! ! O.=.p. . .] i.{ ~ (  .| O.{ | P.r.*.=.7.Y.X.^ _ ......*.&.L.e.' | :.v.' ' ~ ~ { | ~ :.V.@.&.O.v.h.Q T ",
"o.%.%.-.-.-.%.=.w.w.y.-.r.B.B.D.V.V.b.V.B.Z.K.V.Z.V.V.Z.L.K.A.A.L.Z.r.u.b.a.M.K.L.B.S.D.Z.D.S.k.k.D.V.L.P.P.C.D.D.Z.Z.m.B.n.f.h.",
"e s d s p i e O.A * = e $.M V C B B B B A h.J u u c B.V A ~ ~ C C C V B./ B B @.e.2 h r w w 8 f F g.8 b g I e.N V b b b j f l d.",
"N N s N B B N O.o.u s s $.Z G V C [ [ +.J l.$.A C +.B.,.@.$.$.$.:.+.+.l.$.:.O.6.B.K F V F G F Z I h.j j y [ S.G G G C b l l M s.",
"s / Q N N B O.o.[ O.=.=.$.$.=.e.$.$.$.q.t.$.w.5.e.w.e.q.h.h.e.h.f.k.j.t.h.u.r.u.h.f.k.C.h.r.e.B.k.j.f.:.q.h.G.D.C.D.Z.h.f.g.s.d.",
"% N e @ * i B * i - - - * * * @.j z u N O.e s s p s c u A q.N C N 6.O.v d d R Q d v O.+.z x z :.j c n n n n ~ c d.} b 7 j | r f ",
"w N d i s d o.e d d T T d d d =.~ a d / =.{ ( ` ( ` { / q.t.O.o.[ q.=./ ( ` ` ` %.O.w.2.Q ^ B 4.B v n v n v v n r.b t 8 b ;.7 7 ",
"B s d / Q Q Q B ! ! ) ) &.O.Q ! E T T Q ^ &.=.( %.` 5.=.O.%.%.) ) %.%.-.O.( { ~ w.:.X.X.X.{ } { J 4.} B } O.4.@.@.] [ ' | | G L ",
"X X @ @ * * * u B = - * A o.- - 0 - - - & N ^ e s d @.A d Q T ! Q Q s %.A % 6 @ :.N y 8 6 e 5 5 , [ 8 & , 8 :.w 6 6 6 5 : 1 1 H ",
"w w u u N N N P o.B / B #.$.o.o.O./ o.A N #.q.$.$.o.#.,.@.o.O.o.o.@.o.$.+.A C A q.+.P o.C C A Z P q.A N N } e.m c N c c l g k ;.",
"y N u z c A J m m N B A N m P +.s N N o.H N V A A N V V q.A N N m q.Z N N B B B B A $.A A B C #.Z P J A V G V F ,.J [ ' L +.V b ",
". r $ @ @ e j % % 5 e w w w y A e s e N m r y e u t u r Z Z u N m #.w 5 6 6 i 9 = u o.u p 5 y A # , 5 % 5 5 , , +.5 5 o , l     ",
"r j y u u s m Z A A V G A H P P V / N P P P N s N V G V P 0.P o.o.#.J A ' B B B B C +.Z N z j N h y g f y j g j I j g r y j O O ",
"Q.Q.Q.Q.Q.Q.Q.Q.Q.Q.Q.Q.Q.Q.Q.Q.Q.Q.Q.Q.Q.Q.Q.Q.Q.Q.Q.Q.Q.Q.Q.Q.Q.Q.Q.Q.Q.Q.Q.Q.Q.Q.Q.Q.Q.Q.Q.Q.Q.Q.Q.Q.Q.Q.Q.Q.Q.Q.Q.Q.Q.Q.Q.Q.",
"Q.Q.Q.Q.Q.Q.Q.Q.Q.Q.Q.Q.Q.Q.Q.Q.Q.Q.Q.Q.Q.Q.Q.Q.Q.Q.Q.Q.Q.Q.Q.Q.Q.Q.Q.Q.Q.Q.Q.Q.Q.Q.Q.Q.Q.Q.Q.Q.Q.Q.Q.Q.Q.Q.Q.Q.Q.Q.Q.Q.Q.Q.Q.Q.",
"Q.Q.Q.Q.Q.Q.Q.Q.Q.Q.Q.Q.Q.Q.Q.Q.Q.Q.Q.Q.Q.Q.Q.Q.Q.Q.Q.Q.Q.Q.Q.Q.Q.Q.Q.Q.Q.Q.Q.Q.Q.Q.Q.Q.Q.Q.Q.Q.Q.Q.Q.Q.Q.Q.Q.Q.Q.Q.Q.Q.Q.Q.Q.Q.",
"Q.Q.Q.Q.Q.Q.Q.Q.Q.Q.Q.Q.Q.Q.Q.Q.Q.Q.Q.Q.Q.Q.Q.Q.Q.Q.Q.Q.Q.Q.Q.Q.Q.Q.Q.Q.Q.Q.Q.Q.Q.Q.Q.Q.Q.Q.Q.Q.Q.Q.Q.Q.Q.Q.Q.Q.Q.Q.Q.Q.Q.Q.Q.Q.",
"Q.Q.Q.Q.Q.Q.Q.Q.Q.Q.Q.Q.Q.Q.Q.Q.Q.Q.Q.Q.Q.Q.Q.Q.Q.Q.Q.Q.Q.Q.Q.Q.Q.Q.Q.Q.Q.Q.Q.Q.Q.Q.Q.Q.Q.Q.Q.Q.Q.Q.Q.Q.Q.Q.Q.Q.Q.Q.Q.Q.Q.Q.Q.Q.",
"Q.Q.Q.Q.Q.Q.Q.Q.Q.Q.Q.Q.Q.Q.Q.Q.Q.Q.Q.Q.Q.Q.Q.Q.Q.Q.Q.Q.Q.Q.Q.Q.Q.Q.Q.Q.Q.Q.Q.Q.Q.Q.Q.Q.Q.Q.Q.Q.Q.Q.Q.Q.Q.Q.Q.Q.Q.Q.Q.Q.Q.Q.Q.Q.",
"Q.Q.Q.Q.Q.Q.Q.Q.Q.Q.Q.Q.Q.Q.Q.Q.Q.Q.Q.Q.Q.Q.Q.Q.Q.Q.Q.Q.Q.Q.Q.Q.Q.Q.Q.Q.Q.Q.Q.Q.Q.Q.Q.Q.Q.Q.Q.Q.Q.Q.Q.Q.Q.Q.Q.Q.Q.Q.Q.Q.Q.Q.Q.Q.",
"Q.Q.Q.Q.Q.Q.Q.Q.Q.Q.Q.Q.Q.Q.Q.Q.Q.Q.Q.Q.Q.Q.Q.Q.Q.Q.Q.Q.Q.Q.Q.Q.Q.Q.Q.Q.Q.Q.Q.Q.Q.Q.Q.Q.Q.Q.Q.Q.Q.Q.Q.Q.Q.Q.Q.Q.Q.Q.Q.Q.Q.Q.Q.Q."
};
