/* XPM */
static char *_619131006f64556e20b77f25857e460[] = {
/* columns rows colors chars-per-pixel */
"64 64 62 1 ",
"  c #3F3F3F",
". c #403E3F",
"X c #454444",
"o c #494748",
"O c #4C4C4C",
"+ c #504E4F",
"@ c #514F50",
"# c #545354",
"$ c #585657",
"% c #595758",
"& c #5C5C5C",
"* c #605E5F",
"= c #5E5E60",
"- c #615F60",
"; c #636363",
": c #686667",
"> c #676769",
", c #696768",
"< c #6B6B6C",
"1 c #706E6F",
"2 c #6F6F71",
"3 c #716F70",
"4 c #737373",
"5 c #787677",
"6 c #777779",
"7 c #797778",
"8 c #7B7B7C",
"9 c #807E7F",
"0 c #7F7F81",
"q c #817F80",
"w c #838384",
"e c #888687",
"r c #868688",
"t c #898788",
"y c #8B8B8C",
"u c #8F8F91",
"i c #939394",
"p c #969698",
"a c #9B9B9C",
"s c #9E9EA0",
"d c #A2A2A3",
"f c #A7A7A9",
"g c #ACAAAB",
"h c #AFAFB1",
"j c #B4B3B4",
"k c #B9B7B8",
"l c #BCBBBB",
"z c #C1BFC0",
"x c #C3C2C3",
"c c #CAC8C9",
"v c gray84",
"b c #DDDDDD",
"n c #DFDFE1",
"m c #E3E3E4",
"M c #E6E6E8",
"N c #ECECEC",
"B c #EEEEF0",
"V c #F2F2F4",
"C c #F8F6F7",
"Z c #F7F7F9",
"A c #F9F7F8",
"S c #FDFDFE",
/* pixels */
"SSSSSZSZSSSSSSSSCCAAASSSSSSSSSSSSSSSSSSSSZZSSSSSSSSSSSSSZSSSSSSS",
"ZZZSSSSSSSSSSSSSCVAACSSSSSSSSSSSSSSSSSSSSSSSSSZVSSSSSSSSSSSSSZSS",
"SSSVSSVSZZZZZZZSNNNbASVNSCCAVVVVVAZZZZVVBZVBVZSSBVZVVZZVSBVSVSSS",
"SSVsffsdgghhhhhhggjjjldpaadfdiuiadddspuisfs08860000wwwrrrrwyymSS",
"SSS204442222444644444q4487894;;<00042>=>00u0r00080088666200w8MSZ",
"SSZ2w2060606666448444w88wq981<18006<>;<4>0p0r00000000000w0664nSS",
"SSV0r0000606644448844w44984<<<58002;><2600srr00rrwrrryyyrwryyMSS",
"SSNrwrywrwrrwwww88888iyy853<<38800>;<24600a0r000wwwrrrwrwrywyMSS",
"SZByirryyyuyryyyyeyweyd84<<<<8886<;>>022>2s000000000w0wwr0wrwMSS",
"SSVruyyurryrryrryeewyia8<;;<4884<>=>2002>0p0000000000000w0ww0MSS",
"SSV0rryrrrrrryrrewwweyi4<<<<88<<>>>2002>&0u2<<<22244406664008MSS",
"SSV00000w0w000w0qqqwwyw<;<<484<&>>2420>==0u202>2>>><<>2222422mSS",
"SSV80202204404404444884;;<444<<&><202>>>=0r22>>>>>>>>>><<<4><nSS",
"SSB602>>>>>>>>>><<4<<8<;<<84<<;;>000>;>=>00>>>=>>>><>>>>>><>>nSS",
"SSV8022>22>22>2244888y4<448<;;;;204>==>>20002202>>2222<2<>222mSS",
"SSVr0000002000008888wy<<<44<;;<<022===22200r00020000600606886mSS",
"SSVyw0r0wwww00w0808wwu82<44;;;<<44<;#;<4<9q884442200200200000MZZ",
"SSBw08w00w0000008880wur6<<;;;;4<<<;&;<44<8q88888000200000200<nSS",
"SSSyyww0wwwwwwwww0w00ui6<&;&;4<4;;#;;444<<q<4<<40222022000008MSS",
"ZZB00ww0w000806806844wi4;;;;<84<;;;;4<8<;<w;;;&;==>>><>>$==24MSS",
"SSV2222222444<<<<;<<46y<&<#44;4&&&;444<;&<y&&&&&&&=====><>>=;nSS",
"SZB<<2=>><<<<<<;<;;<<2w>;&<<44;;&&<<44<;&4y;&;;&==&=========>MSS",
"ZSZ0rpypuyyyyryyyiwiyyayiwaiiawyi8d8ayiyeadyyyywr0rruurryryyrNSZ",
"SSB>0r0iw086444449<w88yr8w4884e4884w;a<w8eww844<2>20rr02628rwnSS",
"SSN<;87y333>;<;;<;44;4e<w;44;8;<8&4&q;44<ww;<;;&;&;,66;;>=<42nSS",
"SSN:;75r122>;<&;<<;<4<48&w8444&w;;;y;;4;0<y8;;&&&&;<67;;;=<44nSS",
"SSN;-44w<<<;;;;;4;<<;<w444;4<<w&4<8;<<<4;48<<;&#&&->55-&;&<44nSS",
"SSN;-229<<<-;;&;<;<<&4y48444&9&<;4;;4<<<<iw;<;&#&&->54=&=&<44nSS",
"SSN;;<28<,<;&;;;;<;<4<88&48&q&;4<<;4;<<;w<y4;&#&&#&>44&&*&144bSS",
"SSB;;:<8,<<&;;&;<;<<<<844<#8&44<4&4;4<<8;<4;&&&&&#&;22&&&&<44bSS",
"SSB&-;:4<,<;&;&;;;44&<y<4;8;&8;4&<;44;<;;y8;<#&O##&;<<%%&%<44bSS",
"SSV&**;3,<;&;;&;;<<<;;48&4<#8O9O4<<8#4<;4;w<;&O###&;<:##&%,1<bSS",
"AAN&&&;4<<;&&;&;;<<;;8y;,4#4O8#1<;wO4<#4-<7;;*#O@$*;;<##&#:43bNN",
"AAN&&&&<;<;&&&&;;;<4;;484O4$4&;4#8&4<&<<379;&####$*;<;##&#:3<vCN",
"SSm&&&&<;<;&&&&;;<;;;;54O<&>>&>#8;&8O4;&;39;&OO@%%*:<;##&&;1<bCC",
"SSm&&&&<;<;&&&&;<&;<#<y;<#4-&4@5;<<&<;;<%;9,*+oO$#*;<&##&#;<,bAA",
"SSN&&#&<;;;&&#&&&<;&;;;4;<&;4#72O4&;<&;;:39;&#O###*;,&O$%$::,bAS",
"SSN&&##<;<&&&&#;;;;<&;8;#2;>;;<%8&;4X<&&:37*$#O###&*;*##%$:<,bSS",
"SSV;;&&<<;&&&&#;<;;;#<0<8&4;<;&3;;<O<O<<&<7&##OO##-*;;##%$:<<bSS",
"SSV:<&&4;;&&&#&;;&;;&&40;4&;<;4&&4#;4;&&*59&#####&;*;&#O$$:<,bSS",
"SSN<::;<;;&&&#&&;;&;&&y4<4$8&<3&4#<4;<&;<;8;&O###&;;=&#@##<;<vSA",
"SSN44<:8444<<;;<<444<<y8e:w8:i;84;yw<<;88<9<<;&;;<<2<<;;&$><8bSS",
"SSC8889y8884888888894wiytp8pywdeiwyiyiywyetwq755444808648>58wbSS",
"ASM&&:;;;&#&<<;&&&#&&88<:&<<;<:<<<;<;<<;<<;;;&###$&&;;&#o O&:vSS",
"SSN=*<;&###&<;;&###&&84;&%;&&&**&;;;#&;;&<&;&#O###&;;%####&&*vSS",
"ACm<<;&&#&;<<;####&;;4<&==&&-&&*&&##&;&&&;;&&##&#&;;;%@OO#*&&bSS",
"SSN<;%OO&;<<;#O##;;<<;4<-,&--&-*&&&&&&#;&;<O####&;>;&#@@O&;;&bSS",
"SSN;%%##&<<;&###;;&;;#4<,,::-1*-;;;;;;&;&;4X###&&&;&##@@&--*%bSS",
"SSM;#@@=;<>&@#&&::-*$-39311111111,,,,,,,:33X++%*;&&&#OO#&>#&#mZZ",
"SSN%##&;<;=##&;;--%$$:9339331,,19,911111131.+$%*;&##OOO&&;O&OmSZ",
"SSN##&;;;&#@&;;;*&@@%19993911111:,,,,,,,11-.@%&*&&#OOO&&&&##OmSS",
"SSV#=;;=&##&;<;&$%@@-9q3,111111,1,1111111:*X$&*%##OOO#&&&&#OoNSS",
"SSN&1*;####;;;&#+$$*:391,1111,11,,,,,,,,:--@%*&%O#OO##&#&$OXomSS",
"SAN:3&#@O#;>;&##$&&-*:1;$@@@++++#@####$#$$&$%*%%OOOO#&&&$OOXOnSS",
"SSN::%@##;>>&#O#&---&&:-%%%$@@@$@@@##@@+++$$%*%$#OO#&&&&O@oO#bSS",
"SSN,&#O#&;<;#O#&:-*-$$;;%%%$$$%%%%%%$$$$$#%*%&$+OOO&&&##O@o#&bSS",
"SAn;#o$&>>;#O#&;-**$o%<:***&&&&*-----%%$$*--%%&@@@%&-&%OO+#%;vZS",
"ASN#O&:*;;#OO&;;*#@@@<71:::-:-::-:-:-:---,3*&%#o##&&-&#OO&;&%vZS",
"SSN##;;&&##O&;;&$@++%5q3111111331111,1,1,49$%#++%&=;&$OOo+=;&bSS",
"SZM&=<;;O###;;;#@#$@$19<1,1,,,<111,,,:::;17O$#+&=;;;%+Oo&&<;#bZS",
"SSM;*,%OoO#%&&&OX@%%-4q511,,,<,,<,,:,:::38t#%@O#&=&#@OoO#;,&#mSS",
"SSZkxxlljlllxxllzzzkklkgggggggggggggggggfjcjlllxxxxxllklxzlxjVSS",
"SASSSSZSAASSSVVVCAACSSSSAAASAACCCCCCAACCZSSASAACZSZZZZASSVBSSSSS",
"SSSSCSSSSSSSSSSSSSSSSSSSSSSSSSSSSSSSSSSASAASSSSASSSSSSSSSSSSSZSS"
};
