/* XPM */
static char *_6c4baec3ead49978176a416058ee621[] = {
/* columns rows colors chars-per-pixel */
"64 64 107 2 ",
"   c #331E24",
".  c #362124",
"X  c #3A2425",
"o  c #3F2C27",
"O  c #37212B",
"+  c #3B252A",
"@  c #3E292B",
"#  c #3C2730",
"$  c #3F2934",
"%  c #402D27",
"&  c #402328",
"*  c #422D2C",
"=  c #473527",
"-  c #4C3B27",
";  c #45322D",
":  c #49342E",
">  c #4C3A2D",
",  c #50352E",
"<  c #503F2F",
"1  c #432D32",
"2  c #4C2F33",
"3  c #452F3C",
"4  c #463232",
"5  c #4B3533",
"6  c #4D3934",
"7  c #473038",
"8  c #4A343A",
"9  c #4D3A39",
"0  c #513734",
"q  c #523B35",
"w  c #583B37",
"e  c #523539",
"r  c #533C3A",
"t  c #5A3D3B",
"y  c #54442D",
"u  c #58492E",
"i  c #554333",
"p  c #594635",
"a  c #554933",
"s  c #5B4B34",
"d  c #55433C",
"f  c #5B443C",
"g  c #5C4B3C",
"h  c #5F5134",
"j  c #5F503A",
"k  c #614D36",
"l  c #61463D",
"z  c #624C3D",
"x  c #684D3E",
"c  c #625336",
"v  c #645933",
"b  c #685937",
"n  c #64543C",
"m  c #69553C",
"M  c #66593A",
"N  c #6A5B3D",
"B  c #715E3E",
"V  c #6D613E",
"C  c #70623F",
"Z  c #5B3E42",
"A  c #554242",
"S  c #5C4442",
"D  c #574A42",
"F  c #5D4B42",
"G  c #58434A",
"H  c #5D4C4A",
"J  c #5F5345",
"K  c #5E5149",
"L  c #624643",
"P  c #634C43",
"I  c #694D44",
"U  c #644549",
"Y  c #634C49",
"T  c #6A4C4A",
"R  c #655343",
"E  c #6A5444",
"W  c #655846",
"Q  c #6C5B44",
"!  c #65534A",
"~  c #6B544A",
"^  c #65594A",
"/  c #6D5B4A",
"(  c #715645",
")  c #715D45",
"_  c #71554B",
"`  c #725D4B",
"'  c #795F4B",
"]  c #6A5750",
"[  c #6F5C51",
"{  c #735C51",
"}  c #795E51",
"|  c #6F6143",
" . c #6F6049",
".. c #726245",
"X. c #74634B",
"o. c #79664C",
"O. c #77684B",
"+. c #7A6A4D",
"@. c #756351",
"#. c #796552",
"$. c #7C6B52",
"%. c #776559",
"&. c #796559",
"*. c #7F6F58",
"=. c #806E55",
"-. c #827154",
";. c #827258",
/* pixels */
"P S 2 f  .Q Q E R M b k l r ; F ) ) Q Q E m c k P 0 : P  .....E R Q k k L 5 : ! .. .Q W E R n s F q 4 D / N W R n z s h p F 5 9 ",
"P S 5 f / | Q E Q N m k L t : P Q ..Q Q R R n k P 0 ; R  .Q ..E R ) k k P e : ! Q Q W E R m n s f 0 * d W c R n g g s s y f o 4 ",
"I S 6 D X...) ( Q Q B x Y t 6 R X.X.X.( Q ) N c P q : ! X...X.E Q Q b k P r 6 ! .. .| W W m c h g r ; f Q W N R R n s s y d o 4 ",
"I L 9 P o.X.X.)  .) B n I g 6 ! o.o.X.X.X. .Q m I q 6 ! X...O.Q Q ) n x T 0 6 ] X. . ./ Q Q R h P r : F / N W R W N n s p g * 4 ",
"P g 6 g X...X.) X.) B m I S q ! O...O.) ) ) B c T w 6 ~ X...O./ Q ' m n I r 9 ~ | X.| Q E Q c s l r : D Q Q Q R R N v j a p ; 4 ",
"I L 6 F O.O.X.` X.) B m E F q W +.O...X. .X.Q b ~ f 9 ] $.O.o.` Q ..b n ~ w 6 / ..O. .Q Q W N v x w : f | N Q R m R n h s g ; 6 ",
"~ I r R $.+.O.o.X.B B m W L < W -.+.o.X.o.o...b _ f r ] $.O.$.{ Q O.B m ~ d q / O.+.X.X.|  .Q b R f 6 R  .|  ./ Q Q M j s j ; 8 ",
"( Y r R $.O.O.X.O...C Q ( L q / $.+.o.X.o.X.) m _ t r / $.O.$.X.) O.B E _ S i  .+.@.O.X.` | Q N P f 6 P  .|  ./ Q Q N c s j ; 4 ",
"L S 7 d / / / ! T W j F S Z 1 H / / ~ ] ~ ! R j S Z 3 H [ / ] T P E j f U e 2 H [ [ ! ! ! R R p L 9 1 A ! ^ / P D R g p d A @ $ ",
"t r 1 9 R R R z P z p p w e + D n R P z R z g y r 2 X d ! n P g f k y q t 1 . d R F D p d p a y r 1 . 5 f a f d d d y > ; 9 . O ",
"I L 5 S { ..` ~ ( Q M m L S 4 K ) ../ / W Q E k P t : Y X./ ` E E Q h h T 0 : J Q / ~ ! ! Q m s g e ; d W W E g j R g s i g @ 1 ",
"P L 6 g  . .X.~ (  .M m x L : K X.X.` ) ` Q B n I f 9 ! @. .X./ Q | c n I r > W  .` Q Q W Q m v L f 5 D Q | Q n R n h s y f o 1 ",
"x z 6 p  .O...Q Q B b M l l : R O.O.` ` ` Q B c P w : R @...X./ ) Q v k I q : J .. .| W Q N n h z q : p Q Q Q n n W j s y p * ; ",
"E P r P O.O.o.X.' O.V ) ( U 6 ! +.+.+.o.X.X.) B ( L r ] $.$.$.X.o.O.N m _ t 6 / o.$.@.[  .Q N c E f 9 P  .....W W Q N c s J 5 4 ",
"P z 6 g X.O.X./ `  .N Q I L : K O.o.X.`  .X.Q n I f 9 ! $.X.X.{ ) X.M m _ t 6 ! O.@.@. ./ Q Q c Y f : F / | ..E R Q n j s g % 4 ",
"E Y r R $.o.$.} #.o.C X._ P 9 ^ +.$.#.@.X.X.) m I g q ! $.X.$.' ` X.M m _ t 6 ! @.O.X. . . .Q v E g 9 F  . .X./ W Q m n s D 4 4 ",
"( I i n o.+.+.O.o.O.C ..( I > W +.$.$.X.X.O.C B ( z q E $.+.+.o.X.O...N ( P d ^ +.+.@.X.X.....V m l < g X.....) Q ..N M c R > 6 ",
"( I d ! *.*.-.o.#.O.C ..( I 9 ! -.-.*.&.#.o.X.B _ P r ] *.$.$.@.o.X...N ( L r ^ *.*.*.$.@.O.O.| E U r P $.o.O.X.W Q R n s R 5 5 ",
"I F 5 f X.o.X./ @.X.Q ) I L 5 ! X.@.@./ / Q Q n _ S 9 ! $.O.#.X.} { | Q T U 6 K X.@.{ /  ./ Q n P S : d / Q / E E / R n p J 4 4 ",
"L t 1 r ~ W E P L n u s t e . 9 ! ~ R R P R z s t 8 + r ! m ! F Y j z p t 2 @ A R W W F F j p y t e @ 9 R n R L g z s i > r . # ",
"P S 8 d  .X.[ ~ ` { N W T U 1 K / / / ~ ~ E R z L r 1 S / Q / Y I R j s Z e & A W / ! ! W R g s w 9 1 9 R m R P D j p a 6 d X # ",
"I L 9 g @.X.X./ ~ Q c R L Z ; D { @.{ / / / Q n T S 5 ! %.X.#.' } / | R T t 9 ! X. .[ / ~ W N n L Z 1 f / W Q E E ~ R j g F 4 4 ",
"I P 6 g O.O.X.` ' O.B B E I : J X.o.X.` ) ) N n I p : R X...X.E ( N M c x t : J ..X. ./ Q Q N v x f : p  ...Q E n m h s u g o * ",
"E x q n O.+.+.X.X...N B x I > R $.$.+.X.O.O.C N E z r W $.+.+.X.X.....M E z r ^ O.o.O. . .| B b x f : s ....C Q Q Q M v s F > 4 ",
"x I q F #.O.o.} #.o.B B I I 0 R $.=.$.X.X.X.) m E P 0 P *.$.+.' X.X.B m x z 6 ! O.O.@. . . .N M z g 2 g X...| / W / N c p F 4 4 ",
"I I q g $.+.o.' ' o.V Q ( T 0 ! $.$.#.X.X.` ) B I P q P $.=.=.' X.X.B B I L > ! O.$.%. . . .C N P L 2 f X.X. .[ / | W m j R 4 8 ",
"I I q z =.-.=.#.#.o.C Q ~ T q ! $.$.$.@.o.X.C N ( P q R =.$.#.' @.X...) I P 6 ~ O.$.O.X. . .| b P g 6 g { .. .Q W Q Q c s F > 4 ",
"( ~ r P ;.;.=.#.=.$....._ _ r ! ;.;.=.$.+.+.O...( E r E =.-.=.#.#.$...X.~ ! 9 ] $.*.#.O.O.X.| N I P q P o.O.@. .` ..Q N n W > 8 ",
"( T q F *.=.$.' } } | Q ~ T e K =.=.$.@.X.o.O.B _ I r I ;.$.=.o.@.X.) ) I Y 5 ! o.$.@.X.X. .| N ~ P r P $.X.X.@.[  .Q m j R 5 9 ",
"l l ; r { ) Q I I E h n L Z * A ) Q E R n E n z l w 1 d [ ) E E P m k x g r @ A W ~ Q R R m s s t r * q I n R j g n s s 6 d @ @ ",
"t Z 1 r ~ W Q T I m k z l Z 1 r / / ! Y P R n j t e & 9 W E E L F n k k t 9 X t W W R F f j s y q 8 X e J g g d f g a i > 9 . O ",
"L U e S %.$.&.&.} { Q / T T 2 Y &.#.%.[ [ { / Q T U e Y &.$.@.[ ~ [ E Q U S 1 H @.@.[ [ ] / E n U Z 7 Z [ / ] ] ! / ! F d H 4 3 ",
"I L 9 F X.o.o.` ( C b N x I > F o.o. .` ) ..B b E F 5 g o.O.X./  .| n n g d ; L V | | | Q Q M h z t ; d Q N Q E R N j s s f % ; ",
"I L q g o.o.o.` ' ..V N I U 6 F $.o.X. .) X.) b E L 5 j #.O.X.{ {  .N B x F : ! O.O.O. . .| B c n g : p  .| Q W W Q c n s R : 4 ",
"_ I e P $.$.=.' ' ..C B ( I 0 F $.$.#.X.X.X...N E P 6 F $.+.o.X.`  .B Q R Y : ! O.O.@. . ...Q M R F 5 f  .....Q W Q m c s R 5 4 ",
"T L r P $.+.o.#.=.O.B Q ( T 2 J $.$.$.@.X.o.O.C E L 9 F #.O.o.` / ..N Q P F : ! O.+.O. .| / N b n f 5 f  .| / W Q Q m j s F 4 4 ",
"~ L e z $.o.+.' ( B B B T T 2 F +.o.#.X.X.X...N ( L : F o.+.O.{ X.X.B ) R F : ! +.+.O. . . .Q N P z 6 p X.|  .[ Q Q N n s F > 8 ",
"_ T r R =.+.=.#.' =.C X._ _ q ! =.*.$.#.#.$.X.C _ I r R $.*.$.@.%.o.....~ Y 5 ! $.$.$.O.X.X...N I L 6 F @.X.X.X./  .Q W j R > 9 ",
"_ T r T $.=.=.#.' +.C X.( T e ! $.=.$.X.X.o.X.C ( T r R *.$.$.#.@.X.C Q ! P 9 ! @.$.@.X.X. .| Q R g 6 g X.| X. .W ..Q c g R 4 9 ",
"I L 5 g X.X.' ` ( ) b m I L 2 D X.X. ./ Q Q B M I F : f O.X.X.` / Q n N z S : Y O.X.X./ Q / W m z f ; d / | | ~ m W N h a a ; 8 ",
"t e + 9 ! E ! P P Y s g f w & r E R R P P g j s Z e & 5 ! R Y L L z p a e e . 9 z R F g g f a y 9 4 O 1 f j j d f f i q ; 9 . O ",
"Y Z 1 A @. .` Q ( ` N R L U 2 S / ` { ~ ! Q m k L t 2 f [ ` ( ! ~ E j P t Z 1 S / / ~ ! ! R R s w d # 9 ! R ! P F R j s y f @ $ ",
"P Z : f  .X. ./ { ) M N I U , S X.X.' / E Q N n I Z 5 S X.X.` ( ` / N M P U : F  .X.X.Q ~ W R n f f 4 r ^ Q W P R W c n p D ; 4 ",
"P S : f X.O.) ) ) ..M M P L , f O.O. ./ N Q B c l f : p X. .o.) (  .M M P L : F X.X. . .Q Q N c p i ; d / Q W n n W c s a f o 4 ",
"E L 9 n $.+.O.X.' O.N N E I , L +.+.X.` Q Q C b x l > g O.o.o.` '  .M M R L > F O.O.O. . .Q Q v k l : p  . .Q m N N n c u j ; 4 ",
"I F : g o.O.O.) ) O.V N I I , z O.O.O.) Q B N b x l 0 z O.o.o.{ { ..M M P P 6 F .... ./ Q Q N v l f 6 A  . .| Q R Q n c s j ; 4 ",
"I g ; f O...X.) ( ) b m x L , g X.o.O.) ) Q B b I l 6 g o.O.o.` ' ) M m I P 2 g O.X.| | Q Q N j z g : d / | ..W R N c c s g ; 4 ",
"_ L q P $.$.o.` o.X.V ) E T 0 P X.O.#.X. .....N I L 0 P $.o.o.' ' X.M N E T 0 F O.O.@.X. . .Q N P L 5 D X. .X.Q W Q W c s F : 5 ",
"I S 6 F $.$.@.X.{ X.V | R I 9 R O.+.O. .....| N x z > n $.O.O.X.X.O.B Q W Y 5 R +.@.O. . . .Q m z P 9 d [  . ./ W Q N h s g : : ",
"~ U 9 L $.$.$.X.} o.| Q I T 5 ! O.X.O.|  ...W N E L 9 P $.o.o.X.[  .M N F J 4 F X.@.X./ / Q W m P U 9 S @.X. . .W Q Q h j p 5 4 ",
"w 5 @ 9 E N n z l n s s w 0 X 6 W Q W R R n g s t q 1 i W N E P R n s s d 9 X 9 W W W F P j g y q r @ 5 R j j F p g g > < i + + ",
"f e o 6 ! m R z I n h s q q X 5 F R n g f g p y q 8 . 5 F s j f D f a y 6 8 . 8 z n R f D f a i : 6 . 1 g g p a d i a - > 8 O # ",
"P S 8 f [ | ) E E Q h n l L * f / [ ~ ! ! E P j L Z 1 d ~ W ~ ! ! W c j d D @ d ~ / / ! ! R j p p t 1 5 ! m n F F F g y d d # $ ",
"L Z 4 p / Q Q m I N h c z L * d  . . ./ W W R c P t 2 d / Q Q E ! Q c z f S 1 A |  ./ ! R ! R s f l ; r W W n J g g n y i d # 4 ",
"l f > f ..| ..E ( B v v x I : g C Q Q N N m n k l i * i Q N N E m b h h s d % d V Q Q n m n v u p w * 6 R n h j g s s y y i % @ ",
"l l : g ....C Q E B h c x P : s ......Q Q Q M v x l > p | ....) Q N v v j g = j | | | Q N N n c k g : q Q B m M n n c a a a ; ; ",
"z d ; g | | | W / Q n n p F 5 A B ) ` ( / ( m x z f ; d / | / W E N m m g F 4 d Q Q / ~ W R n s p D ; 9 W Q N R n g n a y i ; 1 ",
"z d 5 p  .| | Q / Q b n g F : d ) ) ) ) ( Q m b z S : f / .. .~ R W v n d D ; d W | Q W R Q n s p D ; 9 W W c R P j n s y a * * ",
"z f : f  .|  .~ / Q M n f D 5 g X.X.` Q Q / Q M z f : p | | / ^ Q N v n f F 5 d Q  . .Q Q m c c p D ; < E Q n R n p c a y a * % ",
"R S 6 D [ X.X. ./ | M N g K 5 g X.X.X.) / ) Q N x z 6 g  . .X.^ ~ Q M c g K > f | X.X. .W Q W n j F 4 q ~ N m R R j m s p s : ; ",
"L t : A / | / ~ ! N c n f J 5 d | /  .W Q W W m z g 6 d [ .. .^ W Q M n p D : d W ) / ~ W R n h p A ; 9 ! N n n F s h a y a ; 1 ",
"q 6 X : R j g f p s a y 6 9 X ; j n g j g s s y q 6 X : g n j p g g y y 5 9 X 4 s g z p p d y > 6 6 . * d s i i i i y - - : X   ",
"9 4 X 5 F j g f d p y i 6 8 O 4 g j g A p p a < 6 :   * p p d d d a y y 4 4 . @ a f p d d a y i 4 5   @ d a i r 9 > i = ; : .   ",
"g Z 1 9 / W ^ ! Y R j F A G 4 9 ^ ~ ^ ! ! ! P p S Z 1 r ! W ! Y F F g g A G $ 9 J R ! Y L J F g d A # 7 Y F p D f d p i 6 d # + "
};
